<svg width="170" height="20" viewBox="0 0 170 20" fill="none" xmlns="http://www.w3.org/2000/svg">
<path d="M6.78 16.38C5.48667 16.38 4.39333 16.1733 3.5 15.76C2.62 15.3467 1.94667 14.78 1.48 14.06C1.01333 13.3267 0.78 12.5 0.78 11.58H3.56C3.56 11.9667 3.66667 12.3467 3.88 12.72C4.09333 13.08 4.43333 13.3733 4.9 13.6C5.38 13.8267 6.00667 13.94 6.78 13.94C7.47333 13.94 8.05333 13.84 8.52 13.64C8.98667 13.44 9.33333 13.18 9.56 12.86C9.78667 12.5267 9.9 12.1533 9.9 11.74C9.9 11.22 9.68 10.8067 9.24 10.5C8.8 10.18 8.12 9.98 7.2 9.9L5.92 9.8C4.52 9.68 3.4 9.24667 2.56 8.5C1.73333 7.74 1.32 6.74 1.32 5.5C1.32 4.56667 1.54 3.76667 1.98 3.1C2.42 2.42 3.03333 1.9 3.82 1.54C4.62 1.16667 5.55333 0.979999 6.62 0.979999C7.72667 0.979999 8.68 1.17333 9.48 1.56C10.28 1.94667 10.9 2.49333 11.34 3.2C11.78 3.89333 12 4.71333 12 5.66H9.22C9.22 5.26 9.12 4.89333 8.92 4.56C8.73333 4.21333 8.44667 3.94 8.06 3.74C7.68667 3.52667 7.20667 3.42 6.62 3.42C6.06 3.42 5.59333 3.51333 5.22 3.7C4.84667 3.88667 4.56667 4.14 4.38 4.46C4.19333 4.78 4.1 5.12667 4.1 5.5C4.1 5.95333 4.26667 6.35333 4.6 6.7C4.93333 7.03333 5.46 7.22667 6.18 7.28L7.46 7.4C8.5 7.48 9.41333 7.7 10.2 8.06C10.9867 8.42 11.5933 8.90667 12.02 9.52C12.46 10.1333 12.68 10.8733 12.68 11.74C12.68 12.66 12.44 13.4733 11.96 14.18C11.48 14.8733 10.7933 15.4133 9.9 15.8C9.02 16.1867 7.98 16.38 6.78 16.38ZM21.6366 16V12.78H21.1766V9.2C21.1766 8.57333 21.0232 8.10667 20.7166 7.8C20.4099 7.49333 19.9366 7.34 19.2966 7.34C18.9632 7.34 18.5632 7.34667 18.0966 7.36C17.6299 7.37333 17.1566 7.39333 16.6766 7.42C16.2099 7.43333 15.7899 7.45333 15.4166 7.48V5.12C15.7232 5.09333 16.0699 5.06667 16.4566 5.04C16.8432 5.01333 17.2366 5 17.6366 5C18.0499 4.98667 18.4366 4.98 18.7966 4.98C19.9166 4.98 20.8432 5.12667 21.5766 5.42C22.3232 5.71333 22.8832 6.17333 23.2566 6.8C23.6432 7.42667 23.8366 8.24667 23.8366 9.26V16H21.6366ZM18.1366 16.28C17.3499 16.28 16.6566 16.14 16.0566 15.86C15.4699 15.58 15.0099 15.18 14.6766 14.66C14.3566 14.14 14.1966 13.5133 14.1966 12.78C14.1966 11.98 14.3899 11.3267 14.7766 10.82C15.1766 10.3133 15.7299 9.93333 16.4366 9.68C17.1566 9.42667 17.9966 9.3 18.9566 9.3H21.4766V10.96H18.9166C18.2766 10.96 17.7832 11.12 17.4366 11.44C17.1032 11.7467 16.9366 12.1467 16.9366 12.64C16.9366 13.1333 17.1032 13.5333 17.4366 13.84C17.7832 14.1467 18.2766 14.3 18.9166 14.3C19.3032 14.3 19.6566 14.2333 19.9766 14.1C20.3099 13.9533 20.5832 13.7133 20.7966 13.38C21.0232 13.0333 21.1499 12.5667 21.1766 11.98L21.8566 12.76C21.7899 13.52 21.6032 14.16 21.2966 14.68C21.0032 15.2 20.5899 15.6 20.0566 15.88C19.5366 16.1467 18.8966 16.28 18.1366 16.28ZM26.8144 16V5.14H29.0144V9.8H28.8144C28.8144 8.70667 28.9544 7.79333 29.2344 7.06C29.5144 6.31333 29.9277 5.75333 30.4744 5.38C31.0344 4.99333 31.7277 4.8 32.5544 4.8H32.6744C33.5144 4.8 34.2077 4.99333 34.7544 5.38C35.3144 5.75333 35.7277 6.31333 35.9944 7.06C36.2744 7.79333 36.4144 8.70667 36.4144 9.8H35.7144C35.7144 8.70667 35.8544 7.79333 36.1344 7.06C36.4277 6.31333 36.8477 5.75333 37.3944 5.38C37.9544 4.99333 38.6477 4.8 39.4744 4.8H39.5944C40.4344 4.8 41.1344 4.99333 41.6944 5.38C42.2544 5.75333 42.6744 6.31333 42.9544 7.06C43.2477 7.79333 43.3944 8.70667 43.3944 9.8V16H40.6144V9.54C40.6144 8.86 40.441 8.32 40.0944 7.92C39.7477 7.50667 39.2544 7.3 38.6144 7.3C37.9744 7.3 37.461 7.51333 37.0744 7.94C36.6877 8.35333 36.4944 8.91333 36.4944 9.62V16H33.7144V9.54C33.7144 8.86 33.541 8.32 33.1944 7.92C32.8477 7.50667 32.3544 7.3 31.7144 7.3C31.0744 7.3 30.561 7.51333 30.1744 7.94C29.7877 8.35333 29.5944 8.91333 29.5944 9.62V16H26.8144ZM46.8852 16V5.14H49.6652V16H46.8852ZM45.3652 7.22V5.14H49.6652V7.22H45.3652ZM47.9052 3.84C47.3585 3.84 46.9518 3.7 46.6852 3.42C46.4318 3.12667 46.3052 2.76667 46.3052 2.34C46.3052 1.88667 46.4318 1.52 46.6852 1.24C46.9518 0.959999 47.3585 0.819999 47.9052 0.819999C48.4518 0.819999 48.8518 0.959999 49.1052 1.24C49.3585 1.52 49.4852 1.88667 49.4852 2.34C49.4852 2.76667 49.3585 3.12667 49.1052 3.42C48.8518 3.7 48.4518 3.84 47.9052 3.84ZM60.4691 16L56.8291 10.92H55.2091L59.8291 5.14H62.7291L58.4691 10.48L58.5291 9.08L63.6091 16H60.4691ZM52.8691 16V1.4H55.6491V16H52.8691ZM68.8989 16.34C67.4056 16.34 66.2322 16.0267 65.3789 15.4C64.5389 14.76 64.0989 13.88 64.0589 12.76H66.5589C66.5989 13.1333 66.8056 13.4733 67.1789 13.78C67.5522 14.0867 68.1389 14.24 68.9389 14.24C69.6056 14.24 70.1322 14.12 70.5189 13.88C70.9189 13.64 71.1189 13.3133 71.1189 12.9C71.1189 12.54 70.9656 12.2533 70.6589 12.04C70.3656 11.8267 69.8589 11.6867 69.1389 11.62L68.1789 11.52C66.9656 11.3867 66.0322 11.04 65.3789 10.48C64.7256 9.92 64.3989 9.17333 64.3989 8.24C64.3989 7.49333 64.5856 6.86667 64.9589 6.36C65.3322 5.85333 65.8456 5.47333 66.4989 5.22C67.1656 4.95333 67.9256 4.82 68.7789 4.82C70.1122 4.82 71.1922 5.11333 72.0189 5.7C72.8456 6.28667 73.2789 7.14667 73.3189 8.28H70.8189C70.7922 7.90667 70.6056 7.58667 70.2589 7.32C69.9122 7.05333 69.4122 6.92 68.7589 6.92C68.1722 6.92 67.7189 7.03333 67.3989 7.26C67.0789 7.48667 66.9189 7.78 66.9189 8.14C66.9189 8.48667 67.0456 8.75333 67.2989 8.94C67.5656 9.12667 67.9922 9.25333 68.5789 9.32L69.5389 9.42C70.8189 9.55333 71.8189 9.90667 72.5389 10.48C73.2722 11.0533 73.6389 11.8267 73.6389 12.8C73.6389 13.52 73.4389 14.1467 73.0389 14.68C72.6522 15.2 72.1056 15.6067 71.3989 15.9C70.6922 16.1933 69.8589 16.34 68.8989 16.34ZM75.9355 16V1.4H78.7155V9.92H78.2355C78.2355 8.82667 78.3755 7.9 78.6555 7.14C78.9355 6.38 79.3488 5.8 79.8955 5.4C80.4555 5 81.1621 4.8 82.0155 4.8H82.1355C83.3755 4.8 84.3155 5.22667 84.9555 6.08C85.5955 6.93333 85.9155 8.17333 85.9155 9.8V16H83.1355V9.54C83.1355 8.84667 82.9355 8.3 82.5355 7.9C82.1488 7.5 81.6355 7.3 80.9955 7.3C80.3155 7.3 79.7621 7.52667 79.3355 7.98C78.9221 8.42 78.7155 9 78.7155 9.72V16H75.9355ZM95.4842 16V12.78H95.0242V9.2C95.0242 8.57333 94.8709 8.10667 94.5642 7.8C94.2576 7.49333 93.7842 7.34 93.1442 7.34C92.8109 7.34 92.4109 7.34667 91.9442 7.36C91.4776 7.37333 91.0042 7.39333 90.5242 7.42C90.0576 7.43333 89.6376 7.45333 89.2642 7.48V5.12C89.5709 5.09333 89.9176 5.06667 90.3042 5.04C90.6909 5.01333 91.0842 5 91.4842 5C91.8976 4.98667 92.2842 4.98 92.6442 4.98C93.7642 4.98 94.6909 5.12667 95.4242 5.42C96.1709 5.71333 96.7309 6.17333 97.1042 6.8C97.4909 7.42667 97.6842 8.24667 97.6842 9.26V16H95.4842ZM91.9842 16.28C91.1976 16.28 90.5042 16.14 89.9042 15.86C89.3176 15.58 88.8576 15.18 88.5242 14.66C88.2042 14.14 88.0442 13.5133 88.0442 12.78C88.0442 11.98 88.2376 11.3267 88.6242 10.82C89.0242 10.3133 89.5776 9.93333 90.2842 9.68C91.0042 9.42667 91.8442 9.3 92.8042 9.3H95.3242V10.96H92.7642C92.1242 10.96 91.6309 11.12 91.2842 11.44C90.9509 11.7467 90.7842 12.1467 90.7842 12.64C90.7842 13.1333 90.9509 13.5333 91.2842 13.84C91.6309 14.1467 92.1242 14.3 92.7642 14.3C93.1509 14.3 93.5042 14.2333 93.8242 14.1C94.1576 13.9533 94.4309 13.7133 94.6442 13.38C94.8709 13.0333 94.9976 12.5667 95.0242 11.98L95.7042 12.76C95.6376 13.52 95.4509 14.16 95.1442 14.68C94.8509 15.2 94.4376 15.6 93.9042 15.88C93.3842 16.1467 92.7442 16.28 91.9842 16.28ZM112.293 16.34C111.093 16.34 110.026 16.14 109.093 15.74C108.173 15.34 107.399 14.7933 106.773 14.1C106.146 13.3933 105.666 12.5867 105.333 11.68C105.013 10.76 104.853 9.79333 104.853 8.78V8.42C104.853 7.48667 105.006 6.58 105.313 5.7C105.633 4.82 106.093 4.02667 106.693 3.32C107.293 2.61333 108.039 2.05333 108.933 1.64C109.826 1.22667 110.839 1.02 111.973 1.02C113.159 1.02 114.213 1.24667 115.133 1.7C116.053 2.14 116.793 2.76 117.353 3.56C117.926 4.36 118.259 5.28667 118.353 6.34H116.813C116.706 5.48667 116.419 4.76667 115.953 4.18C115.499 3.59333 114.926 3.15333 114.233 2.86C113.539 2.56667 112.786 2.42 111.973 2.42C111.119 2.42 110.346 2.57333 109.653 2.88C108.959 3.18667 108.373 3.62 107.893 4.18C107.413 4.74 107.039 5.4 106.773 6.16C106.519 6.90667 106.393 7.72667 106.393 8.62C106.393 9.56667 106.526 10.4333 106.793 11.22C107.059 11.9933 107.446 12.66 107.953 13.22C108.459 13.78 109.073 14.2133 109.793 14.52C110.526 14.8267 111.359 14.98 112.293 14.98C113.439 14.98 114.446 14.76 115.313 14.32C116.193 13.8667 116.873 13.2733 117.353 12.54L116.753 14.42V10.1H118.193V13.74C117.566 14.5533 116.753 15.1933 115.753 15.66C114.753 16.1133 113.599 16.34 112.293 16.34ZM111.753 10.42V9.14H119.493V10.42H111.753ZM125.854 16.3C124.587 16.3 123.621 15.8933 122.954 15.08C122.287 14.2533 121.954 13.1067 121.954 11.64V5.4H123.434V11.94C123.434 12.86 123.674 13.5933 124.154 14.14C124.647 14.6733 125.327 14.94 126.194 14.94C127.101 14.94 127.821 14.6533 128.354 14.08C128.901 13.5067 129.174 12.74 129.174 11.78V5.4H130.674V16H129.474V11.58H129.714C129.714 12.5667 129.574 13.4133 129.294 14.12C129.014 14.8133 128.594 15.3533 128.034 15.74C127.474 16.1133 126.767 16.3 125.914 16.3H125.854ZM134.596 20V5.42H135.796V9.96L135.436 10C135.49 8.93333 135.716 8.03333 136.116 7.3C136.53 6.56667 137.083 6.01333 137.776 5.64C138.483 5.25333 139.27 5.06 140.136 5.06C140.91 5.06 141.61 5.21333 142.236 5.52C142.876 5.81333 143.416 6.22 143.856 6.74C144.31 7.24667 144.65 7.83333 144.876 8.5C145.116 9.15333 145.236 9.84 145.236 10.56V10.84C145.236 11.56 145.116 12.2533 144.876 12.92C144.636 13.5733 144.29 14.16 143.836 14.68C143.396 15.1867 142.856 15.5933 142.216 15.9C141.59 16.1933 140.883 16.34 140.096 16.34C139.256 16.34 138.483 16.1533 137.776 15.78C137.083 15.3933 136.516 14.8267 136.076 14.08C135.65 13.3333 135.416 12.4133 135.376 11.32L136.096 12.82V20H134.596ZM139.896 15.02C140.696 15.02 141.383 14.8333 141.956 14.46C142.53 14.0733 142.97 13.5533 143.276 12.9C143.583 12.2333 143.736 11.5 143.736 10.7C143.736 9.87333 143.576 9.14 143.256 8.5C142.95 7.84667 142.51 7.33333 141.936 6.96C141.363 6.57333 140.683 6.38 139.896 6.38C139.176 6.38 138.523 6.54 137.936 6.86C137.35 7.18 136.883 7.63333 136.536 8.22C136.203 8.79333 136.036 9.47333 136.036 10.26V11.24C136.036 11.9867 136.203 12.6467 136.536 13.22C136.883 13.78 137.35 14.22 137.936 14.54C138.523 14.86 139.176 15.02 139.896 15.02ZM152.108 16.12C151.375 16.12 150.741 16.0133 150.208 15.8C149.675 15.5867 149.261 15.2267 148.968 14.72C148.675 14.2 148.528 13.5067 148.528 12.64V2.08H149.968V12.86C149.968 13.4733 150.135 13.9467 150.468 14.28C150.801 14.6 151.275 14.76 151.888 14.76H153.788V16.12H152.108ZM146.628 6.56V5.42H153.788V6.56H146.628ZM163.087 16V12.82H162.847V9.06C162.847 8.27333 162.64 7.67333 162.227 7.26C161.814 6.83333 161.174 6.62 160.307 6.62C159.907 6.62 159.5 6.62667 159.087 6.64C158.687 6.65333 158.3 6.67333 157.927 6.7C157.567 6.71333 157.247 6.73333 156.967 6.76V5.44C157.26 5.41333 157.56 5.38667 157.867 5.36C158.174 5.33333 158.487 5.32 158.807 5.32C159.14 5.30667 159.46 5.3 159.767 5.3C160.847 5.3 161.714 5.43333 162.367 5.7C163.034 5.96667 163.52 6.38667 163.827 6.96C164.134 7.52 164.287 8.26667 164.287 9.2V16H163.087ZM159.507 16.28C158.76 16.28 158.1 16.1467 157.527 15.88C156.954 15.6133 156.507 15.2267 156.187 14.72C155.88 14.2133 155.727 13.6 155.727 12.88C155.727 12.1733 155.887 11.5733 156.207 11.08C156.54 10.5867 157.014 10.2133 157.627 9.96C158.254 9.69333 159.007 9.56 159.887 9.56H162.987V10.7H159.787C158.947 10.7 158.3 10.9067 157.847 11.32C157.407 11.72 157.187 12.2467 157.187 12.9C157.187 13.5667 157.42 14.1 157.887 14.5C158.354 14.8867 158.987 15.08 159.787 15.08C160.28 15.08 160.754 14.9933 161.207 14.82C161.66 14.6333 162.04 14.3267 162.347 13.9C162.654 13.46 162.82 12.86 162.847 12.1L163.287 12.72C163.234 13.5067 163.047 14.1667 162.727 14.7C162.407 15.22 161.974 15.6133 161.427 15.88C160.88 16.1467 160.24 16.28 159.507 16.28Z" fill="white"/>
<path d="M167.734 16V14.02H169.614V16H167.734Z" fill="#F13024"/>
</svg>
