<svg width="204" height="24" viewBox="0 0 204 24" fill="none" xmlns="http://www.w3.org/2000/svg">
<path d="M8.136 19.456C6.584 19.456 5.272 19.208 4.2 18.712C3.144 18.216 2.336 17.536 1.776 16.672C1.216 15.792 0.936 14.8 0.936 13.696H4.272C4.272 14.16 4.4 14.616 4.656 15.064C4.912 15.496 5.32 15.848 5.88 16.12C6.456 16.392 7.208 16.528 8.136 16.528C8.968 16.528 9.664 16.408 10.224 16.168C10.784 15.928 11.2 15.616 11.472 15.232C11.744 14.832 11.88 14.384 11.88 13.888C11.88 13.264 11.616 12.768 11.088 12.4C10.56 12.016 9.744 11.776 8.64 11.68L7.104 11.56C5.424 11.416 4.08 10.896 3.072 10C2.08 9.088 1.584 7.888 1.584 6.4C1.584 5.28 1.848 4.32 2.376 3.52C2.904 2.704 3.64 2.08 4.584 1.648C5.544 1.2 6.664 0.975999 7.944 0.975999C9.272 0.975999 10.416 1.208 11.376 1.672C12.336 2.136 13.08 2.792 13.608 3.64C14.136 4.472 14.4 5.456 14.4 6.592H11.064C11.064 6.112 10.944 5.672 10.704 5.272C10.48 4.856 10.136 4.528 9.672 4.288C9.224 4.032 8.648 3.904 7.944 3.904C7.272 3.904 6.712 4.016 6.264 4.24C5.816 4.464 5.48 4.768 5.256 5.152C5.032 5.536 4.92 5.952 4.92 6.4C4.92 6.944 5.12 7.424 5.52 7.84C5.92 8.24 6.552 8.472 7.416 8.536L8.952 8.68C10.2 8.776 11.296 9.04 12.24 9.472C13.184 9.904 13.912 10.488 14.424 11.224C14.952 11.96 15.216 12.848 15.216 13.888C15.216 14.992 14.928 15.968 14.352 16.816C13.776 17.648 12.952 18.296 11.88 18.76C10.824 19.224 9.576 19.456 8.136 19.456ZM25.9639 19V15.136H25.4119V10.84C25.4119 10.088 25.2279 9.528 24.8599 9.16C24.4919 8.792 23.9239 8.608 23.1559 8.608C22.7559 8.608 22.2759 8.616 21.7159 8.632C21.1559 8.648 20.5879 8.672 20.0119 8.704C19.4519 8.72 18.9479 8.744 18.4999 8.776V5.944C18.8679 5.912 19.2839 5.88 19.7479 5.848C20.2119 5.816 20.6839 5.8 21.1639 5.8C21.6599 5.784 22.1239 5.776 22.5559 5.776C23.8999 5.776 25.0119 5.952 25.8919 6.304C26.7879 6.656 27.4599 7.208 27.9079 7.96C28.3719 8.712 28.6039 9.696 28.6039 10.912V19H25.9639ZM21.7639 19.336C20.8199 19.336 19.9879 19.168 19.2679 18.832C18.5639 18.496 18.0119 18.016 17.6119 17.392C17.2279 16.768 17.0359 16.016 17.0359 15.136C17.0359 14.176 17.2679 13.392 17.7319 12.784C18.2119 12.176 18.8759 11.72 19.7239 11.416C20.5879 11.112 21.5959 10.96 22.7479 10.96H25.7719V12.952H22.6999C21.9319 12.952 21.3399 13.144 20.9239 13.528C20.5239 13.896 20.3239 14.376 20.3239 14.968C20.3239 15.56 20.5239 16.04 20.9239 16.408C21.3399 16.776 21.9319 16.96 22.6999 16.96C23.1639 16.96 23.5879 16.88 23.9719 16.72C24.3719 16.544 24.6999 16.256 24.9559 15.856C25.2279 15.44 25.3799 14.88 25.4119 14.176L26.2279 15.112C26.1479 16.024 25.9239 16.792 25.5559 17.416C25.2039 18.04 24.7079 18.52 24.0679 18.856C23.4439 19.176 22.6759 19.336 21.7639 19.336ZM32.1773 19V5.968H34.8173V11.56H34.5773C34.5773 10.248 34.7453 9.152 35.0813 8.272C35.4173 7.376 35.9133 6.704 36.5693 6.256C37.2413 5.792 38.0733 5.56 39.0653 5.56H39.2093C40.2173 5.56 41.0493 5.792 41.7053 6.256C42.3773 6.704 42.8733 7.376 43.1933 8.272C43.5293 9.152 43.6973 10.248 43.6973 11.56H42.8573C42.8573 10.248 43.0253 9.152 43.3613 8.272C43.7133 7.376 44.2173 6.704 44.8733 6.256C45.5453 5.792 46.3773 5.56 47.3693 5.56H47.5133C48.5213 5.56 49.3613 5.792 50.0333 6.256C50.7053 6.704 51.2093 7.376 51.5453 8.272C51.8973 9.152 52.0733 10.248 52.0733 11.56V19H48.7373V11.248C48.7373 10.432 48.5293 9.784 48.1133 9.304C47.6973 8.808 47.1053 8.56 46.3373 8.56C45.5693 8.56 44.9533 8.816 44.4893 9.328C44.0253 9.824 43.7933 10.496 43.7933 11.344V19H40.4573V11.248C40.4573 10.432 40.2493 9.784 39.8333 9.304C39.4173 8.808 38.8253 8.56 38.0573 8.56C37.2893 8.56 36.6733 8.816 36.2093 9.328C35.7453 9.824 35.5133 10.496 35.5133 11.344V19H32.1773ZM56.2622 19V5.968H59.5982V19H56.2622ZM54.4382 8.464V5.968H59.5982V8.464H54.4382ZM57.4862 4.408C56.8302 4.408 56.3422 4.24 56.0222 3.904C55.7182 3.552 55.5662 3.12 55.5662 2.608C55.5662 2.064 55.7182 1.624 56.0222 1.288C56.3422 0.951999 56.8302 0.783998 57.4862 0.783998C58.1422 0.783998 58.6222 0.951999 58.9262 1.288C59.2302 1.624 59.3822 2.064 59.3822 2.608C59.3822 3.12 59.2302 3.552 58.9262 3.904C58.6222 4.24 58.1422 4.408 57.4862 4.408ZM72.5629 19L68.1949 12.904H66.2509L71.7949 5.968H75.2749L70.1629 12.376L70.2349 10.696L76.3309 19H72.5629ZM63.4429 19V1.48H66.7789V19H63.4429ZM82.6787 19.408C80.8867 19.408 79.4787 19.032 78.4547 18.28C77.4467 17.512 76.9187 16.456 76.8707 15.112H79.8707C79.9187 15.56 80.1667 15.968 80.6147 16.336C81.0627 16.704 81.7667 16.888 82.7267 16.888C83.5267 16.888 84.1587 16.744 84.6227 16.456C85.1027 16.168 85.3427 15.776 85.3427 15.28C85.3427 14.848 85.1587 14.504 84.7907 14.248C84.4387 13.992 83.8307 13.824 82.9667 13.744L81.8147 13.624C80.3587 13.464 79.2387 13.048 78.4547 12.376C77.6707 11.704 77.2787 10.808 77.2787 9.688C77.2787 8.792 77.5027 8.04 77.9507 7.432C78.3987 6.824 79.0147 6.368 79.7987 6.064C80.5987 5.744 81.5107 5.584 82.5347 5.584C84.1347 5.584 85.4307 5.936 86.4227 6.64C87.4147 7.344 87.9347 8.376 87.9827 9.736H84.9827C84.9507 9.288 84.7267 8.904 84.3107 8.584C83.8947 8.264 83.2947 8.104 82.5107 8.104C81.8067 8.104 81.2627 8.24 80.8787 8.512C80.4947 8.784 80.3027 9.136 80.3027 9.568C80.3027 9.984 80.4547 10.304 80.7587 10.528C81.0787 10.752 81.5907 10.904 82.2947 10.984L83.4467 11.104C84.9827 11.264 86.1827 11.688 87.0467 12.376C87.9267 13.064 88.3667 13.992 88.3667 15.16C88.3667 16.024 88.1267 16.776 87.6467 17.416C87.1827 18.04 86.5267 18.528 85.6787 18.88C84.8307 19.232 83.8307 19.408 82.6787 19.408ZM91.1226 19V1.48H94.4586V11.704H93.8826C93.8826 10.392 94.0506 9.28 94.3866 8.368C94.7226 7.456 95.2186 6.76 95.8746 6.28C96.5466 5.8 97.3946 5.56 98.4186 5.56H98.5626C100.051 5.56 101.179 6.072 101.947 7.096C102.715 8.12 103.099 9.608 103.099 11.56V19H99.7626V11.248C99.7626 10.416 99.5226 9.76 99.0426 9.28C98.5786 8.8 97.9626 8.56 97.1946 8.56C96.3786 8.56 95.7146 8.832 95.2026 9.376C94.7066 9.904 94.4586 10.6 94.4586 11.464V19H91.1226ZM114.581 19V15.136H114.029V10.84C114.029 10.088 113.845 9.528 113.477 9.16C113.109 8.792 112.541 8.608 111.773 8.608C111.373 8.608 110.893 8.616 110.333 8.632C109.773 8.648 109.205 8.672 108.629 8.704C108.069 8.72 107.565 8.744 107.117 8.776V5.944C107.485 5.912 107.901 5.88 108.365 5.848C108.829 5.816 109.301 5.8 109.781 5.8C110.277 5.784 110.741 5.776 111.173 5.776C112.517 5.776 113.629 5.952 114.509 6.304C115.405 6.656 116.077 7.208 116.525 7.96C116.989 8.712 117.221 9.696 117.221 10.912V19H114.581ZM110.381 19.336C109.437 19.336 108.605 19.168 107.885 18.832C107.181 18.496 106.629 18.016 106.229 17.392C105.845 16.768 105.653 16.016 105.653 15.136C105.653 14.176 105.885 13.392 106.349 12.784C106.829 12.176 107.493 11.72 108.341 11.416C109.205 11.112 110.213 10.96 111.365 10.96H114.389V12.952H111.317C110.549 12.952 109.957 13.144 109.541 13.528C109.141 13.896 108.941 14.376 108.941 14.968C108.941 15.56 109.141 16.04 109.541 16.408C109.957 16.776 110.549 16.96 111.317 16.96C111.781 16.96 112.205 16.88 112.589 16.72C112.989 16.544 113.317 16.256 113.573 15.856C113.845 15.44 113.997 14.88 114.029 14.176L114.845 15.112C114.765 16.024 114.541 16.792 114.173 17.416C113.821 18.04 113.325 18.52 112.685 18.856C112.061 19.176 111.293 19.336 110.381 19.336ZM134.751 19.408C133.311 19.408 132.031 19.168 130.911 18.688C129.807 18.208 128.879 17.552 128.127 16.72C127.375 15.872 126.799 14.904 126.399 13.816C126.015 12.712 125.823 11.552 125.823 10.336V9.904C125.823 8.784 126.007 7.696 126.375 6.64C126.759 5.584 127.311 4.632 128.031 3.784C128.751 2.936 129.647 2.264 130.719 1.768C131.791 1.272 133.007 1.024 134.367 1.024C135.791 1.024 137.055 1.296 138.159 1.84C139.263 2.368 140.151 3.112 140.823 4.072C141.511 5.032 141.911 6.144 142.023 7.408H140.175C140.047 6.384 139.703 5.52 139.143 4.816C138.599 4.112 137.911 3.584 137.079 3.232C136.247 2.88 135.343 2.704 134.367 2.704C133.343 2.704 132.415 2.888 131.583 3.256C130.751 3.624 130.047 4.144 129.471 4.816C128.895 5.488 128.447 6.28 128.127 7.192C127.823 8.088 127.671 9.072 127.671 10.144C127.671 11.28 127.831 12.32 128.151 13.264C128.471 14.192 128.935 14.992 129.543 15.664C130.151 16.336 130.887 16.856 131.751 17.224C132.631 17.592 133.631 17.776 134.751 17.776C136.127 17.776 137.335 17.512 138.375 16.984C139.431 16.44 140.247 15.728 140.823 14.848L140.103 17.104V11.92H141.831V16.288C141.079 17.264 140.103 18.032 138.903 18.592C137.703 19.136 136.319 19.408 134.751 19.408ZM134.103 12.304V10.768H143.391V12.304H134.103ZM151.025 19.36C149.505 19.36 148.345 18.872 147.545 17.896C146.745 16.904 146.345 15.528 146.345 13.768V6.28H148.121V14.128C148.121 15.232 148.409 16.112 148.985 16.768C149.577 17.408 150.393 17.728 151.433 17.728C152.521 17.728 153.385 17.384 154.025 16.696C154.681 16.008 155.009 15.088 155.009 13.936V6.28H156.809V19H155.369V13.696H155.657C155.657 14.88 155.489 15.896 155.153 16.744C154.817 17.576 154.313 18.224 153.641 18.688C152.969 19.136 152.121 19.36 151.097 19.36H151.025ZM161.516 23.8V6.304H162.956V11.752L162.524 11.8C162.588 10.52 162.86 9.44 163.34 8.56C163.836 7.68 164.5 7.016 165.332 6.568C166.18 6.104 167.124 5.872 168.164 5.872C169.092 5.872 169.932 6.056 170.684 6.424C171.452 6.776 172.1 7.264 172.628 7.888C173.172 8.496 173.58 9.2 173.852 10C174.14 10.784 174.284 11.608 174.284 12.472V12.808C174.284 13.672 174.14 14.504 173.852 15.304C173.564 16.088 173.148 16.792 172.604 17.416C172.076 18.024 171.428 18.512 170.66 18.88C169.908 19.232 169.06 19.408 168.116 19.408C167.108 19.408 166.18 19.184 165.332 18.736C164.5 18.272 163.82 17.592 163.292 16.696C162.78 15.8 162.5 14.696 162.452 13.384L163.316 15.184V23.8H161.516ZM167.876 17.824C168.836 17.824 169.66 17.6 170.348 17.152C171.036 16.688 171.564 16.064 171.932 15.28C172.3 14.48 172.484 13.6 172.484 12.64C172.484 11.648 172.292 10.768 171.908 10C171.54 9.216 171.012 8.6 170.324 8.152C169.636 7.688 168.82 7.456 167.876 7.456C167.012 7.456 166.228 7.648 165.523 8.032C164.82 8.416 164.26 8.96 163.844 9.664C163.444 10.352 163.244 11.168 163.244 12.112V13.288C163.244 14.184 163.444 14.976 163.844 15.664C164.26 16.336 164.82 16.864 165.523 17.248C166.228 17.632 167.012 17.824 167.876 17.824ZM182.53 19.144C181.65 19.144 180.89 19.016 180.25 18.76C179.61 18.504 179.114 18.072 178.762 17.464C178.41 16.84 178.234 16.008 178.234 14.968V2.296H179.962V15.232C179.962 15.968 180.162 16.536 180.562 16.936C180.962 17.32 181.53 17.512 182.266 17.512H184.546V19.144H182.53ZM175.954 7.672V6.304H184.546V7.672H175.954ZM195.704 19V15.184H195.416V10.672C195.416 9.728 195.168 9.008 194.672 8.512C194.176 8 193.408 7.744 192.368 7.744C191.888 7.744 191.4 7.752 190.904 7.768C190.424 7.784 189.96 7.808 189.512 7.84C189.08 7.856 188.696 7.88 188.36 7.912V6.328C188.712 6.296 189.072 6.264 189.44 6.232C189.808 6.2 190.184 6.184 190.568 6.184C190.968 6.168 191.352 6.16 191.72 6.16C193.016 6.16 194.056 6.32 194.84 6.64C195.64 6.96 196.224 7.464 196.592 8.152C196.96 8.824 197.144 9.72 197.144 10.84V19H195.704ZM191.408 19.336C190.512 19.336 189.72 19.176 189.032 18.856C188.344 18.536 187.808 18.072 187.424 17.464C187.056 16.856 186.872 16.12 186.872 15.256C186.872 14.408 187.064 13.688 187.448 13.096C187.848 12.504 188.416 12.056 189.152 11.752C189.904 11.432 190.808 11.272 191.864 11.272H195.584V12.64H191.744C190.736 12.64 189.96 12.888 189.416 13.384C188.888 13.864 188.624 14.496 188.624 15.28C188.624 16.08 188.904 16.72 189.464 17.2C190.024 17.664 190.784 17.896 191.744 17.896C192.336 17.896 192.904 17.792 193.448 17.584C193.992 17.36 194.448 16.992 194.816 16.48C195.184 15.952 195.384 15.232 195.416 14.32L195.944 15.064C195.88 16.008 195.656 16.8 195.272 17.44C194.888 18.064 194.368 18.536 193.712 18.856C193.056 19.176 192.288 19.336 191.408 19.336Z" fill="white"/>
<path d="M201.281 19V16.624H203.537V19H201.281Z" fill="#F13024"/>
</svg>
